# xmcd
#
# Track frame offsets: 
#        150
#        12802
#        26522
#        42450
#        57440
#        70622
#        83380
#        95007
#        108787
#        121565
#        134397
#        148260
#        161142
#        174327
#        187702
#        200220
#        212042
#        225795
#        238500
#        251222
#        262310
#
# Disc length: 3661 seconds
#
# Revision: 0
# Processed by: cddbd v1.5.2PL0 Copyright (c) Steve Scherf et al.
# Submitted via: ExactAudioCopy v0.95b3
#
DISCID=1d0e4b15
DTITLE=Big Bill Broonzy  - Volume 1 1927-1930 Complete Edition
DYEAR=1900
DGENRE=
TTITLE0=House Rent Stomp
TTITLE1=Big Bill Blues
TTITLE2=Down In The Basement Blues
TTITLE3=Starvation Blues
TTITLE4=My Texas Blues
TTITLE5=Six Shooter Blues
TTITLE6=Pig Meat Blues
TTITLE7=The Western Blues
TTITLE8=Mountain Girl Blues
TTITLE9=Somebody's Been Using That Thing
TTITLE10=Black Cat Rag
TTITLE11=Pig Meat Strut
TTITLE12=Guitar Rag
TTITLE13=Saturday Night Rub
TTITLE14=Eagle Riding Papa
TTITLE15=Papa's Getting Hot
TTITLE16=Nancy Jane
TTITLE17=That's The Way She Likes It
TTITLE18=I Can't Be Satisfied
TTITLE19=Grandma's Farm
TTITLE20=Skoodle Do Do
EXTD=
EXTT0=
EXTT1=
EXTT2=
EXTT3=
EXTT4=
EXTT5=
EXTT6=
EXTT7=
EXTT8=
EXTT9=
EXTT10=
EXTT11=
EXTT12=
EXTT13=
EXTT14=
EXTT15=
EXTT16=
EXTT17=
EXTT18=
EXTT19=
EXTT20=
PLAYORDER=
